<svg width="175" height="78" viewBox="0 0 175 78" fill="none" xmlns="http://www.w3.org/2000/svg">
<path d="M26.1982 19.136C26.7102 19.136 27.2435 19.264 27.7982 19.52C28.3528 19.776 28.7795 20.1387 29.0782 20.608L45.3342 45.376L42.5822 45.248L59.1582 20.608C59.8408 19.6267 60.7155 19.136 61.7822 19.136C62.6355 19.136 63.3822 19.456 64.0222 20.096C64.7048 20.6933 65.0462 21.4613 65.0462 22.4V60.736C65.0462 61.6747 64.7475 62.464 64.1502 63.104C63.5528 63.7013 62.7635 64 61.7822 64C60.7582 64 59.9262 63.7013 59.2862 63.104C58.6888 62.464 58.3902 61.6747 58.3902 60.736V28.288L60.4382 28.736L46.3582 50.176C46.0595 50.56 45.6755 50.9013 45.2062 51.2C44.7368 51.456 44.2462 51.5627 43.7342 51.52C43.2648 51.5627 42.7742 51.456 42.2622 51.2C41.7928 50.9013 41.4088 50.56 41.1102 50.176L27.5422 29.056L29.0782 26.496V60.736C29.0782 61.6747 28.7795 62.464 28.1822 63.104C27.6275 63.7013 26.8808 64 25.9422 64C25.0462 64 24.2995 63.7013 23.7022 63.104C23.1475 62.464 22.8702 61.6747 22.8702 60.736V22.4C22.8702 21.504 23.1902 20.736 23.8302 20.096C24.5128 19.456 25.3022 19.136 26.1982 19.136ZM88.0392 64.64C85.0098 64.64 82.3005 63.9787 79.9112 62.656C77.5218 61.2907 75.6445 59.52 74.2792 57.344C72.9138 55.168 72.2312 52.864 72.2312 50.432C72.2312 48.384 72.5938 46.4853 73.3192 44.736C74.0872 42.944 75.2178 41.3653 76.7112 40C78.2472 38.6347 80.1885 37.504 82.5352 36.608L86.7592 40.96C83.6872 41.6427 81.5752 42.7307 80.4232 44.224C79.3138 45.7173 78.7592 47.4667 78.7592 49.472C78.7592 50.9653 79.1218 52.416 79.8472 53.824C80.5725 55.1893 81.7032 56.32 83.2392 57.216C84.8178 58.112 86.8658 58.56 89.3832 58.56C91.6445 58.56 93.6285 58.112 95.3352 57.216C97.0845 56.2773 98.5778 55.0613 99.8152 53.568C101.052 52.032 102.055 50.3467 102.823 48.512C103.591 46.6347 104.124 44.7147 104.423 42.752C104.508 42.1547 104.743 41.7067 105.127 41.408C105.511 41.0667 106.151 40.896 107.047 40.896C107.986 40.896 108.711 41.2587 109.223 41.984C109.778 42.7093 109.991 43.584 109.863 44.608C109.479 47.0827 108.754 49.5147 107.687 51.904C106.62 54.2507 105.191 56.4053 103.399 58.368C101.607 60.288 99.4312 61.824 96.8712 62.976C94.3112 64.0853 91.3672 64.64 88.0392 64.64ZM110.759 64C110.375 64 110.012 63.9573 109.671 63.872C109.372 63.744 109.138 63.616 108.967 63.488C106.023 61.056 103.292 58.7733 100.775 56.64C98.3005 54.5067 95.9538 52.3947 93.7352 50.304C91.5592 48.1707 89.4045 45.9093 87.2712 43.52C85.7778 41.8133 84.4125 40.2347 83.1752 38.784C81.9805 37.3333 80.9992 35.904 80.2312 34.496C79.5058 33.088 79.1432 31.5947 79.1432 30.016C79.1432 27.968 79.6765 26.0907 80.7432 24.384C81.8525 22.6347 83.3885 21.2267 85.3512 20.16C87.3565 19.0933 89.7245 18.56 92.4552 18.56C95.4418 18.56 98.0445 19.0933 100.263 20.16C102.524 21.184 104.06 22.4853 104.871 24.064C104.914 24.1067 104.999 24.3413 105.127 24.768C105.298 25.152 105.383 25.6213 105.383 26.176C105.383 26.816 105.127 27.392 104.615 27.904C104.103 28.416 103.42 28.672 102.567 28.672C102.012 28.672 101.564 28.5653 101.223 28.352C100.882 28.1387 100.626 27.9253 100.455 27.712C99.5165 26.432 98.4072 25.4933 97.1272 24.896C95.8898 24.2987 94.3325 24 92.4552 24C90.3218 24 88.6792 24.5547 87.5272 25.664C86.4178 26.7733 85.8632 28.1387 85.8632 29.76C85.8632 31.0827 86.2898 32.4267 87.1432 33.792C88.0392 35.1573 89.0632 36.48 90.2152 37.76C91.4098 38.9973 92.4978 40.1493 93.4792 41.216C94.9298 42.7947 96.5085 44.4373 98.2152 46.144C99.9645 47.808 101.692 49.408 103.399 50.944C105.148 52.48 106.77 53.888 108.263 55.168C109.756 56.448 111.015 57.536 112.039 58.432C112.508 58.8587 112.85 59.2853 113.063 59.712C113.319 60.1387 113.447 60.6507 113.447 61.248C113.447 61.7173 113.234 62.2933 112.807 62.976C112.38 63.6587 111.698 64 110.759 64ZM123.701 19.2C124.554 19.2 125.301 19.52 125.941 20.16C126.624 20.7573 126.965 21.5253 126.965 22.464V60.736C126.922 61.6747 126.56 62.464 125.877 63.104C125.237 63.7013 124.469 64 123.573 64C122.592 64 121.781 63.7013 121.141 63.104C120.544 62.464 120.245 61.6747 120.245 60.736V22.464C120.245 21.5253 120.565 20.7573 121.205 20.16C121.845 19.52 122.677 19.2 123.701 19.2ZM152.565 19.2C153.589 19.2 154.4 19.52 154.997 20.16C155.594 20.7573 155.893 21.5253 155.893 22.464V60.736C155.893 61.6747 155.573 62.464 154.933 63.104C154.336 63.7013 153.525 64 152.501 64C151.605 64 150.837 63.7013 150.197 63.104C149.557 62.464 149.237 61.6747 149.237 60.736V22.464C149.237 21.5253 149.557 20.7573 150.197 20.16C150.88 19.52 151.669 19.2 152.565 19.2ZM123.445 38.272H152.629L152.565 44.416H123.381L123.445 38.272Z" fill="black"/>
<rect x="2.5" y="5.42725" width="170" height="69.2017" stroke="black" stroke-width="5"/>
</svg>
